<svg xmlns="http://www.w3.org/2000/svg" version="1.1" xmlns:xlink="http://www.w3.org/1999/xlink" viewBox="0 0 700 700" style="overflow: hidden; display: block;" width="700" height="700"><defs></defs><g id="two-0" transform="matrix(1 0 0 1 0 0)" opacity="1"><path transform="matrix(1 0 0 1 350 350)" id="two-2" d="M 154.302234 45.307224 C 144.600483 95.79617 279.473731 118.686225 255.206557 164.011295 C 235.461888 200.889446 160.664787 121.541851 129.309889 149.231567 C 96.693209 178.035573 151.561694 244.271383 128.369765 281.090576 C 112.286582 306.624018 76.243974 323.745943 46.177446 321.171196 C 12.25997 318.266673 -17.474674 288.375929 -37.504691 260.850852 C -58.877366 231.480706 -36.922786 167.86713 -71.284426 156.091118 C -130.378306 135.839168 -180.119974 303.257142 -227.672854 262.748479 C -273.943412 223.332181 -124.029728 151.249305 -149.401496 96.014511 C -162.453344 67.600403 -226.020604 98.283497 -240.703647 70.676967 C -252.251051 48.965952 -214.187477 24.419123 -217.088706 0 C -220.674582 -30.181669 -275.106512 -49.108476 -265.932351 -78.084784 C -256.501881 -107.870636 -209.638297 -110.638667 -178.677492 -114.829052 C -149.244404 -118.812669 -109.459379 -81.275287 -89.426987 -103.204244 C -48.067095 -148.47988 -175.225752 -243.195058 -129.953666 -284.558835 C -106.075637 -306.375491 -60.288868 -276.695166 -36.61428 -254.65791 C -1.647792 -222.1097 -27.922915 -135.70964 17.298254 -120.312006 C 35.982833 -113.949979 51.730883 -140.816143 68.819528 -150.693747 C 108.647703 -173.71529 144.218839 -222.556145 190.113627 -219.402822 C 218.747581 -217.435451 252.712088 -194.54259 259.215373 -166.587606 C 268.059208 -128.571542 205.781856 -99.684314 206.594338 -60.661572 C 207.069875 -37.822028 246.495604 -21.885659 239.946649 -0.000001 C 230.780555 30.631754 160.335802 13.907897 154.302234 45.307224 Z " fill="hsl(167, 52%, 78%)" stroke="undefined" stroke-width="1" stroke-opacity="1" fill-opacity="1" visibility="visible" stroke-linecap="butt" stroke-linejoin="miter" stroke-miterlimit="4"></path></g></svg>