<svg xmlns="http://www.w3.org/2000/svg" version="1.1" xmlns:xlink="http://www.w3.org/1999/xlink" xmlns:svgjs="http://svgjs.dev/svgjs" viewBox="0 0 800 800"><defs><filter id="uuunion-blur" x="-100%" y="-100%" width="400%" height="400%" color-interpolation-filters="sRGB">
        <feGaussianBlur in="SourceGraphic" stdDeviation="7.5 0" result="blur"></feGaussianBlur>
        <feDropShadow stdDeviation="12.307692307692308" in="blur" dx="10" dy="10" flood-color="hsl(316, 73%, 52%)" flood-opacity="0.25" x="0%" y="0%" width="100%" height="100%"></feDropShadow>
      </filter><filter id="uuunion-blur2" x="-100%" y="-100%" width="400%" height="400%" color-interpolation-filters="sRGB">
        <feGaussianBlur in="SourceGraphic" stdDeviation="7.5 0" result="blur"></feGaussianBlur>
        <feDropShadow stdDeviation="12.307692307692308" in="blur" dx="-10" dy="-10" flood-color="hsl(316, 73%, 52%)" flood-opacity="0.25" x="0%" y="0%" width="100%" height="100%"></feDropShadow>
      </filter><linearGradient gradientTransform="rotate(0, 0.5, 0.5)" x1="50%" y1="0%" x2="50%" y2="100%" id="uuunion-grad"><stop stop-color="hsl(37, 99%, 67%)" offset="10%"></stop><stop stop-color="hsl(316, 73%, 52%)" offset="90%"></stop></linearGradient><linearGradient gradientTransform="rotate(135, 0.5, 0.5)" x1="50%" y1="0%" x2="50%" y2="100%" id="uuunion-grad2"><stop stop-color="hsl(37, 99%, 67%)" offset="25%"></stop><stop stop-color="hsl(316, 73%, 52%)" offset="100%"></stop></linearGradient><linearGradient gradientTransform="rotate(333, 0.5, 0.5)" x1="50%" y1="0%" x2="50%" y2="100%" id="uuunion-grad3"><stop stop-color="hsl(37, 99%, 67%)" offset="0%"></stop><stop stop-color="hsl(316, 73%, 52%)" offset="75%"></stop></linearGradient></defs><path d="M-79.69 -80.25Q-64.8 -77.64 -49.91 -75.24 -35.02 -73.26 -20.13 -71.89 -5.24 -71.24 9.64 -71.37 24.53 -72.27 39.42 -73.86 54.31 -76 69.2 -78.5 84.09 -81.13 98.98 -83.66 113.87 -85.86 128.76 -87.54 143.65 -88.54 158.54 -88.78 173.43 -88.24 188.31 -86.96 203.2 -85.05 218.09 -82.7 232.98 -80.1 247.87 -77.5 262.76 -75.12 277.65 -73.17 292.54 -71.83 307.43 -71.23 322.32 -71.4 337.21 -72.34 352.1 -73.97 366.99 -76.14 381.88 -78.65 396.77 -81.28 411.66 -83.79 426.55 -85.97 441.44 -87.61 456.33 -88.57 471.22 -88.77 486.1 -88.18 500.99 -86.86 515.88 -84.93 530.77 -82.56 545.66 -79.96 560.55 -77.36 575.44 -74.99 590.33 -73.08 605.22 -71.78 620.11 -71.21 635 -71.43 649.89 -72.42 664.78 -74.08 679.67 -76.27 694.56 -78.79 709.45 -81.42 724.34 -83.92 739.23 -86.08 754.12 -87.68 769.01 -88.61 783.89 -88.76 798.78 -88.13 813.67 -86.77 828.56 -84.81 843.45 -82.42 858.34 -79.81 873.23 -77.22 862.37 -62.15 856.45 -47.07 857.12 -32 864.21 -16.93 875.71 -1.86 888.42 13.2 898.77 28.27 903.85 43.34 902.25 58.41 894.42 73.48 882.54 88.56 869.95 103.63 860.18 118.7 855.95 133.77 858.47 148.84 867.01 163.91 879.2 178.98 891.6 194.05 900.76 209.12 904.09 224.19 900.68 239.27 891.47 254.34 879.04 269.41 866.88 284.48 858.4 299.55 855.96 314.62 860.26 329.69 870.09 344.76 882.69 359.83 894.54 374.9 902.31 389.98 903.83 405.05 898.67 420.12 888.28 435.19 875.56 450.26 864.09 465.33 857.08 480.4 856.48 495.47 862.48 510.54 873.38 525.62 886.13 540.69 897.17 555.76 903.39 570.83 903.06 585.9 896.27 600.97 884.91 616.04 872.18 631.11 861.64 646.18 856.24 661.25 857.5 676.33 865.06 691.4 876.81 706.47 889.45 721.54 899.44 736.61 903.98 751.68 901.81 766.75 893.52 781.82 881.44 796.89 868.96 811.97 859.57 827.04 855.9 842.11 858.99 857.18 866.63 876.37 850.29 873.61 835.28 867.3 820.28 862.13 805.27 858.56 790.27 856.89 775.26 857.29 760.26 859.72 745.25 863.96 730.25 869.64 715.24 876.23 700.24 883.17 685.24 889.82 670.23 895.59 655.23 899.97 640.22 902.56 625.22 903.14 610.21 901.66 595.21 898.23 580.2 893.18 565.2 886.95 550.19 880.1 535.19 873.24 520.18 866.98 505.18 861.89 490.17 858.41 475.17 856.86 460.16 857.38 445.16 859.92 430.15 864.25 415.15 869.99 400.14 876.62 385.14 883.55 370.13 890.17 355.13 895.88 340.12 900.17 325.12 902.65 310.11 903.11 295.11 901.51 280.1 897.99 265.1 892.86 250.09 886.58 235.09 879.71 220.08 872.86 205.08 866.66 190.07 861.64 175.07 858.27 160.06 856.83 145.06 857.47 130.05 860.12 115.05 864.54 100.04 870.34 85.04 877.01 70.03 883.94 55.03 890.52 40.02 896.16 25.02 900.35 10.01 902.73 -4.98 903.08 -19.99 901.36 -34.99 897.74 -50 892.53 -65 886.2 -80.01 879.32 -79.45 864.32 -79.04 849.33 -78.9 834.34 -79.06 819.34 -79.49 804.35 -80.06 789.36 -80.61 774.36 -80.99 759.37 -81.09 744.38 -80.88 729.38 -80.43 714.39 -79.85 699.4 -79.31 684.4 -78.97 669.41 -78.91 654.42 -79.16 639.42 -79.64 624.43 -80.22 609.44 -80.74 594.44 -81.05 579.45 -81.06 564.46 -80.78 549.46 -80.28 534.47 -79.69 519.48 -79.2 504.48 -78.92 489.49 -78.95 474.49 -79.27 459.5 -79.79 444.51 -80.37 429.51 -80.85 414.52 -81.08 399.53 -81.01 384.53 -80.66 369.54 -80.12 354.55 -79.54 339.55 -79.09 324.56 -78.9 309.57 -79.01 294.57 -79.4 279.58 -79.95 264.59 -80.52 249.59 -80.94 234.6 -81.09 219.61 -80.94 204.61 -80.52 189.62 -79.96 174.63 -79.4 159.63 -79.01 144.64 -78.9 129.65 -79.09 114.65 -79.54 99.66 -80.11 84.67 -80.65 69.67 -81.01 54.68 -81.08 39.69 -80.85 24.69 -80.38 9.7 -79.8 -5.28 -79.27 -20.28 -78.95 -35.27 -78.92 -50.27 -79.19 -65.26 -79.69 -80.25" fill="url(#uuunion-grad)"></path><path d="M-79.69 -80.25Q-79.19 -65.26 -78.92 -50.27 -78.95 -35.27 -79.27 -20.28 -79.8 -5.28 -80.38 9.7 -80.85 24.69 -81.08 39.69 -81.01 54.68 -80.65 69.67 -80.11 84.67 -79.54 99.66 -79.09 114.65 -78.9 129.65 -79.01 144.64 -79.4 159.63 -79.96 174.63 -80.52 189.62 -80.94 204.61 -81.09 219.61 -80.94 234.6 -80.52 249.59 -79.95 264.59 -79.4 279.58 -79.01 294.57 -78.9 309.57 -79.09 324.56 -79.54 339.55 -80.12 354.55 -80.66 369.54 -81.01 384.53 -81.08 399.53 -70.82 402.71 -60.56 405.79 -50.3 408.64 -40.04 411.14 -29.78 413.2 -19.53 414.73 -0.29 415.91 3.03 415.98 15.83 408.99 28.55 401.07 41.16 392.33 53.6 382.94 65.85 373.1 77.92 363.03 89.79 352.98 101.49 343.17 113.06 333.83 124.55 325.13 136.02 317.23 147.53 310.21 159.17 304.11 170.99 298.91 183.07 294.53 195.44 290.85 208.16 287.7 221.24 284.88 234.67 282.18 248.43 279.37 262.46 276.25 276.71 272.63 291.08 268.34 305.48 263.29 319.79 257.4 333.91 250.67 347.73 243.13 361.16 234.88 374.12 226.05 386.54 216.8 398.41 207.34 409.72 197.85 420.5 188.54 430.82 179.59 440.76 171.17 450.44 163.4 459.99 156.37 469.58 150.11 479.34 144.61 489.43 139.82 500 135.63 511.17 131.9 523.02 128.49 535.63 125.19 549.02 121.84 563.18 118.26 578.04 114.27 593.51 109.76 609.45 104.62 625.72 98.79 642.11 92.26 658.44 85.06 674.49 77.25 690.08 68.95 705.03 60.28 719.18 51.41 732.42 42.5 744.68 33.71 755.94 25.2 766.23 17.1 775.63 9.51 784.27 2.52 792.32 -3.83 800 -9.57 787.12 -26.82 779.12 -44.07 779.01 -61.32 786.83 -78.57 799.63 -95.81 812.57 -113.06 820.75 -130.31 821.09 -147.56 805.81 -147.89 790.53 -147.53 775.25 -146.5 759.97 -144.9 744.68 -142.87 729.4 -140.58 714.12 -138.24 698.84 -136.05 683.56 -134.22 668.28 -132.89 653 -132.19 637.71 -132.18 622.43 -132.85 607.15 -134.16 591.87 -135.98 576.59 -138.16 561.31 -140.5 546.02 -142.79 530.74 -144.84 515.46 -146.46 500.18 -147.51 484.9 -147.89 469.62 -147.58 454.34 -146.6 439.05 -145.04 423.77 -143.03 408.49 -140.76 393.21 -138.41 377.93 -136.21 362.65 -134.34 347.37 -132.97 332.08 -132.22 316.8 -132.15 301.52 -132.78 286.24 -134.04 270.96 -135.83 255.68 -137.99 240.4 -140.32 225.11 -142.62 209.83 -144.7 194.55 -146.35 179.27 -147.45 163.99 -147.89 148.71 -147.63 133.43 -146.7 118.14 -145.18 102.86 -143.2 87.58 -140.93 72.3 -138.59 57.02 -136.37 41.74 -134.47 26.46 -133.05 11.17 -132.25 -4.1 -132.13 -19.38 -132.71 -34.66 -133.93 -49.94 -135.68 -65.22 -137.82 -80.51 -140.14 -95.79 -142.46 -111.07 -144.55 -126.35 -146.25 -136.42 -134.02 -118.46 -115.8 -108.65 -107.16 -98.89 -98.33 -89.22 -89.34 -79.69 -80.25" fill="url(#uuunion-grad2)" filter="url(#uuunion-blur)"></path><path d="M821.75 384.67Q832.01 385.89 842.27 387.68 852.53 389.95 862.79 392.62 873.05 395.59 883.31 398.74 893.57 401.93 903.83 405.05 898.67 420.12 888.28 435.19 875.56 450.26 864.09 465.33 857.08 480.4 856.48 495.47 862.48 510.54 873.38 525.62 886.13 540.69 897.17 555.76 903.39 570.83 903.06 585.9 896.27 600.97 884.91 616.04 872.18 631.11 861.64 646.18 856.24 661.25 857.5 676.33 865.06 691.4 876.81 706.47 889.45 721.54 899.44 736.61 903.98 751.68 901.81 766.75 893.52 781.82 881.44 796.89 868.96 811.97 859.57 827.04 855.9 842.11 858.99 857.18 853.12 872.72 825.22 863.68 811.45 859.81 797.68 857.46 783.91 856.81 770.14 857.9 756.37 860.66 742.6 864.88 728.83 870.23 715.06 876.32 701.29 882.69 687.52 888.85 673.75 894.34 659.98 898.76 646.21 901.76 632.44 903.12 618.67 902.74 604.9 900.65 591.13 897 577.36 892.07 563.59 886.23 549.82 879.92 536.04 873.62 522.27 867.8 508.5 862.89 494.73 859.27 480.96 857.22 467.19 856.88 453.42 858.28 439.65 861.31 425.88 865.76 412.11 871.27 398.34 877.45 384.57 883.81 370.8 889.89 357.03 895.22 343.26 899.41 329.49 902.13 315.72 903.19 301.95 902.49 288.18 900.11 274.41 896.21 260.64 891.09 246.87 885.13 233.1 878.79 219.33 872.53 205.56 866.84 191.79 862.14 178.02 858.79 164.25 857.03 150.48 857 136.71 858.7 122.94 862.01 109.17 866.67 95.4 872.34 81.63 878.58 67.86 884.93 54.09 890.9 40.32 896.06 26.55 900 5.72 897.74 -1.62 882.89 -1.84 872.74 -1.96 862.59 -1.95 852.44 -1.82 842.29 -1.19 827.07 -0.29 822 12.4 814.97 25.24 806.64 38.22 797.14 51.29 786.68 64.42 775.53 77.56 764.01 90.64 752.44 103.61 741.15 116.41 730.46 129 720.62 141.33 711.86 153.4 704.33 165.19 698.09 176.72 693.12 188.03 689.35 199.17 686.6 210.2 684.64 221.22 683.21 232.29 682.01 243.53 680.7 255.01 679 266.82 676.62 279.01 673.33 291.65 668.96 304.75 663.39 318.31 656.6 332.31 648.63 346.69 639.6 361.37 629.7 376.25 619.15 391.21 608.23 406.13 597.23 420.86 586.45 435.28 576.17 449.27 566.63 462.72 558.03 475.56 550.5 487.73 544.11 499.23 538.86 510.06 534.68 520.3 531.43 530.02 528.91 539.36 526.88 548.46 525.07 557.49 523.22 566.64 521.04 576.07 518.29 585.97 514.76 596.48 510.29 607.74 504.77 619.83 498.17 632.82 490.54 646.7 481.95 661.44 472.57 676.95 462.6 693.11 452.29 709.74 441.87 726.65 431.62 743.63 421.77 760.44 412.56 776.86 404.14 792.67 396.66 814.72 387.42 821.75 384.67" fill="url(#uuunion-grad3)" filter="url(#uuunion-blur2)"></path></svg>